<svg xmlns="http://www.w3.org/2000/svg" xmlns:xlink="http://www.w3.org/1999/xlink" id="Layer_1" width="70" height="70" x="0" style="enable-background:new 0 0 70 70" y="0" version="1.1" viewBox="0 0 70 70" xml:space="preserve"><g><g><linearGradient id="SVGID_1_" x1="-1.332" x2="67.042" y1="43.737" y2="26.097" gradientUnits="userSpaceOnUse"><stop offset=".124" style="stop-color:#7866ff"/><stop offset=".538" style="stop-color:#fe2eb6"/><stop offset=".855" style="stop-color:#fd0486"/></linearGradient><polygon style="fill:url(#SVGID_1_)" points="67.3 16 43.7 0 0 31.1 11.1 70 58.9 60.3"/><linearGradient id="SVGID_2_" x1="45.915" x2="67.658" y1="38.91" y2="9.099" gradientUnits="userSpaceOnUse"><stop offset=".124" style="stop-color:#ff0080"/><stop offset=".259" style="stop-color:#fe0385"/><stop offset=".411" style="stop-color:#fa0c92"/><stop offset=".571" style="stop-color:#f41ba9"/><stop offset=".736" style="stop-color:#eb2fc8"/><stop offset=".866" style="stop-color:#e343e6"/></linearGradient><polygon style="fill:url(#SVGID_2_)" points="67.3 16 43.7 0 38 15.7 38 47.8 70 47.8"/></g><g><rect style="fill:#000" width="43.2" height="43.2" x="13.4" y="13.4"/><rect style="fill:#fff" width="16.2" height="2.7" x="17.4" y="48.5"/><g><path style="fill:#fff" d="M17.4,19.1h6.9c5.6,0,9.5,3.8,9.5,8.9V28c0,5-3.9,8.9-9.5,8.9h-6.9V19.1z M21.4,22.7v10.7h3 c3.2,0,5.4-2.2,5.4-5.3V28c0-3.2-2.2-5.4-5.4-5.4H21.4z"/><polygon style="fill:#fff" points="40.3 22.7 34.9 22.7 34.9 19.1 49.6 19.1 49.6 22.7 44.2 22.7 44.2 37 40.3 37"/></g></g></g></svg>